<?xml version="1.0" standalone="no"?>
<!DOCTYPE svg PUBLIC "-//W3C//DTD SVG 20010904//EN"
 "http://www.w3.org/TR/2001/REC-SVG-20010904/DTD/svg10.dtd">
<svg version="1.0" xmlns="http://www.w3.org/2000/svg"
 width="440.000000pt" height="182.000000pt" viewBox="0 0 440.000000 182.000000"
 preserveAspectRatio="xMidYMid meet">

<g transform="translate(0.000000,182.000000) scale(0.100000,-0.100000)"
fill="#000000" stroke="none">
<path d="M264 1653 c-9 -21 -43 -100 -75 -176 -32 -77 -59 -141 -59 -143 0 -2
13 -4 28 -4 24 0 32 7 47 40 l18 40 84 0 84 0 17 -40 c15 -34 21 -40 49 -40
l31 0 -54 128 c-31 70 -65 151 -77 179 -19 46 -26 53 -50 53 -23 0 -31 -7 -43
-37z m75 -111 c12 -29 21 -57 21 -62 0 -6 -25 -10 -55 -10 -30 0 -55 3 -55 8
0 20 54 132 61 125 4 -4 17 -32 28 -61z"/>
<path d="M656 1663 c-17 -34 -136 -321 -136 -329 0 -3 14 -4 31 -2 29 3 33 9
81 128 28 69 53 128 57 132 3 4 30 -53 60 -127 l54 -135 33 0 33 0 -53 128
c-99 237 -96 232 -122 232 -16 0 -28 -9 -38 -27z"/>
<path d="M930 1510 l0 -180 25 0 24 0 3 128 3 127 53 -80 c29 -44 55 -81 56
-83 2 -1 27 34 57 80 l54 82 3 -127 3 -127 29 0 30 0 0 180 0 180 -32 0 c-30
0 -37 -7 -87 -86 l-53 -85 -55 85 c-48 76 -58 86 -84 86 l-29 0 0 -180z"/>
<path d="M1474 1653 c-9 -21 -43 -100 -75 -176 -32 -77 -59 -141 -59 -143 0
-2 13 -4 28 -4 24 0 32 7 47 40 l18 40 84 0 85 0 15 -40 c14 -36 20 -40 49
-40 l34 0 -23 53 c-13 28 -48 109 -78 179 -51 121 -56 128 -82 128 -23 0 -31
-7 -43 -37z m79 -120 l25 -63 -59 0 c-33 0 -59 2 -59 5 0 18 55 134 61 128 4
-5 18 -36 32 -70z"/>
<path d="M1690 1660 c0 -30 1 -30 55 -30 l55 0 0 -150 0 -150 30 0 30 0 0 150
0 150 55 0 c54 0 55 0 55 30 l0 30 -140 0 -140 0 0 -30z"/>
<path d="M2040 1510 l0 -180 78 1 c131 1 183 34 184 117 1 79 -53 122 -152
122 l-50 0 0 44 c0 60 -8 76 -36 76 l-24 0 0 -180z m189 -26 c21 -26 19 -46
-7 -76 -11 -13 -30 -18 -71 -18 l-56 0 3 60 4 60 53 0 c46 0 57 -4 74 -26z"/>
<path d="M2363 1513 l2 -178 28 -3 27 -3 0 180 0 181 -29 0 -30 0 2 -177z"/>
<path d="M2397 1160 c7 -25 52 -50 88 -50 36 0 81 25 88 50 4 17 0 20 -23 20
-16 0 -32 -4 -35 -10 -3 -5 -19 -10 -36 -10 -16 0 -29 5 -29 10 0 6 -13 10
-29 10 -24 0 -28 -3 -24 -20z"/>
<path d="M150 910 l0 -180 40 0 40 0 0 145 0 145 70 0 70 0 0 -145 0 -145 35
0 35 0 0 180 0 180 -145 0 -145 0 0 -180z"/>
<path d="M540 910 l0 -180 35 0 35 0 0 180 0 180 -35 0 -35 0 0 -180z"/>
<path d="M700 910 l0 -180 40 0 40 0 0 70 c0 49 4 70 13 70 6 0 41 -31 78 -70
64 -70 66 -71 109 -68 l44 3 -77 87 c-42 47 -77 90 -77 95 0 4 32 43 70 86 39
43 70 80 70 82 0 3 -19 5 -43 5 -41 0 -44 -3 -101 -75 -32 -41 -65 -75 -72
-75 -11 0 -14 18 -14 75 l0 75 -40 0 -40 0 0 -180z"/>
<path d="M1080 910 l0 -180 35 0 35 0 0 180 0 180 -35 0 -35 0 0 -180z"/>
<path d="M1230 910 l0 -180 40 0 40 0 0 55 0 55 45 0 c96 0 161 57 151 133
-10 87 -60 117 -191 117 l-85 0 0 -180z m181 100 c23 -13 26 -62 3 -84 -9 -10
-33 -16 -60 -16 l-44 0 0 55 0 55 41 0 c22 0 49 -5 60 -10z"/>
<path d="M1665 1072 c-76 -36 -110 -99 -103 -186 11 -127 138 -200 256 -146
52 23 62 45 34 72 l-20 21 -28 -22 c-29 -23 -83 -28 -115 -11 -28 16 -49 63
-49 113 0 36 6 51 30 77 28 30 34 32 76 27 24 -2 53 -12 63 -21 16 -15 19 -14
39 7 29 31 28 39 -8 61 -47 27 -127 31 -175 8z"/>
<path d="M1991 919 c-39 -94 -71 -175 -71 -180 0 -5 15 -9 33 -9 30 0 36 5 52
40 l18 40 74 0 75 0 15 -40 c15 -37 19 -40 55 -40 21 0 38 2 38 4 0 2 -33 82
-73 177 l-73 174 -36 3 -35 3 -72 -172z m123 38 c32 -78 32 -77 -19 -77 -26 0
-45 3 -43 8 2 4 11 28 22 55 10 26 20 47 22 47 2 0 10 -15 18 -33z"/>
<path d="M2330 910 l0 -180 35 0 c33 0 39 6 117 118 l83 117 3 -117 3 -118 34
0 35 0 0 180 0 180 -35 0 c-33 0 -39 -6 -112 -110 l-78 -110 -3 110 -3 110
-39 0 -40 0 0 -180z"/>
<path d="M2730 910 l0 -180 84 0 c47 0 97 5 113 11 67 25 96 85 73 154 -15 45
-71 74 -142 75 l-48 0 0 60 0 60 -40 0 -40 0 0 -180z m181 -20 c12 -7 19 -21
19 -40 0 -36 -23 -50 -79 -50 l-41 0 0 50 0 50 41 0 c22 0 49 -5 60 -10z"/>
<path d="M3060 910 l0 -180 40 0 40 0 0 180 0 180 -40 0 -40 0 0 -180z"/>
<path d="M3320 1074 c-69 -30 -110 -93 -110 -169 0 -128 110 -210 235 -175 24
7 52 21 61 31 15 17 16 20 0 44 -20 30 -21 30 -53 5 -46 -36 -121 -21 -148 29
-31 60 -12 143 39 170 30 16 91 9 116 -14 15 -14 19 -13 38 8 31 33 28 42 -21
66 -51 25 -108 26 -157 5z"/>
<path d="M320 476 c0 -8 -15 -17 -37 -21 -91 -17 -143 -71 -143 -147 0 -29 7
-62 17 -79 19 -32 103 -79 140 -79 14 0 23 -6 23 -15 0 -10 10 -15 30 -15 19
0 30 5 30 14 0 9 15 17 40 21 53 9 101 43 122 85 47 93 -12 196 -121 214 -27
4 -41 11 -41 21 0 10 -10 15 -30 15 -19 0 -30 -5 -30 -14z m0 -172 l0 -97 -36
6 c-20 3 -45 14 -55 23 -22 19 -34 73 -24 104 8 26 61 60 93 60 21 0 22 -3 22
-96z m130 81 c38 -20 57 -74 40 -116 -13 -32 -55 -59 -90 -59 -19 0 -20 6 -20
95 0 89 1 95 20 95 12 0 34 -7 50 -15z"/>
<path d="M640 310 l0 -181 128 3 127 3 3 28 3 27 -100 0 c-98 0 -101 1 -103
23 -4 67 -11 62 85 65 l87 3 0 29 0 30 -85 0 -85 0 0 45 0 45 95 0 95 0 0 30
0 30 -125 0 -125 0 0 -180z"/>
<path d="M1097 483 c-2 -4 -31 -71 -63 -147 -39 -94 -64 -140 -76 -144 -15 -4
-18 -15 -18 -68 0 -62 1 -64 25 -64 22 0 25 4 25 35 l0 35 140 0 140 0 0 -35
c0 -31 3 -35 25 -35 24 0 25 2 25 64 0 52 -3 65 -16 68 -11 2 -39 56 -78 148
-59 140 -62 145 -93 148 -17 2 -33 -1 -36 -5z m81 -175 c23 -57 42 -106 42
-110 0 -5 -40 -8 -90 -8 -49 0 -90 3 -90 7 0 14 84 213 90 213 3 0 25 -46 48
-102z"/>
<path d="M1390 310 l0 -180 131 0 130 0 -3 28 -3 27 -103 3 -102 3 2 44 3 45
88 0 87 0 0 30 0 30 -89 0 -88 0 1 45 1 45 98 0 97 0 0 30 0 30 -125 0 -125 0
0 -180z"/>
<path d="M1730 310 l0 -180 28 0 c27 0 28 2 29 48 1 26 2 50 2 55 1 4 20 7 44
7 107 0 157 42 157 130 0 87 -50 120 -180 120 l-80 0 0 -180z m191 99 c14 -23
10 -71 -8 -91 -12 -13 -30 -18 -70 -18 l-53 0 -1 40 c-1 22 -1 47 -1 55 0 36
2 37 63 33 38 -3 64 -10 70 -19z"/>
<path d="M2134 453 c-9 -21 -43 -100 -75 -176 -32 -77 -59 -141 -59 -143 0 -2
13 -4 28 -4 24 0 32 7 47 40 l18 40 83 0 84 0 17 -37 c15 -31 24 -39 50 -41
l33 -3 -36 83 c-20 46 -54 127 -77 181 -38 90 -43 97 -70 97 -23 0 -31 -7 -43
-37z m79 -120 l26 -63 -59 0 c-33 0 -60 2 -60 5 0 18 54 135 60 128 3 -4 19
-36 33 -70z"/>
<path d="M2420 311 l0 -181 135 0 135 0 0 -35 c0 -30 3 -35 24 -35 23 0 24 4
28 65 3 62 2 65 -19 65 -23 0 -23 1 -23 150 l0 150 -30 0 -30 0 0 -150 0 -150
-80 0 -79 0 -3 148 -3 147 -27 3 -28 3 0 -180z"/>
<path d="M2810 311 l0 -181 23 0 c19 0 44 27 118 127 l94 128 3 -128 3 -127
29 0 30 0 0 180 0 180 -28 0 c-25 0 -40 -16 -117 -120 -49 -66 -92 -120 -95
-120 -3 0 -5 53 -5 117 l0 118 -27 3 -28 3 0 -180z"/>
<path d="M3261 477 c-37 -13 -71 -64 -71 -107 0 -33 33 -87 59 -95 12 -3 21
-10 21 -14 0 -4 -20 -35 -45 -69 l-45 -62 37 0 c35 1 42 6 80 60 40 56 45 60
83 60 l40 0 0 -61 c0 -60 0 -60 28 -57 l27 3 0 175 0 175 -90 2 c-51 1 -105
-3 -124 -10z m159 -107 l0 -60 -65 0 c-70 0 -105 20 -105 60 0 40 35 60 105
60 l65 0 0 -60z"/>
<path d="M3665 478 c-94 -33 -141 -155 -96 -253 22 -48 44 -69 94 -90 48 -20
93 -19 142 4 57 26 70 44 46 65 -18 16 -21 16 -52 -3 -98 -60 -213 29 -180
140 24 79 108 112 178 70 31 -19 31 -19 49 0 16 18 16 20 0 37 -32 37 -121 51
-181 30z"/>
<path d="M3940 309 l0 -181 95 4 c109 5 142 21 162 81 10 29 10 45 0 74 -18
53 -55 76 -132 81 l-64 4 -3 57 c-3 53 -5 56 -30 59 l-28 3 0 -182z m184 -15
c21 -20 20 -63 -1 -86 -12 -13 -30 -18 -70 -18 l-53 0 0 60 0 60 54 0 c36 0
60 -5 70 -16z"/>
<path d="M4267 483 c-9 -8 -9 -316 -1 -337 3 -9 17 -16 30 -16 l24 0 0 180 0
180 -23 0 c-13 0 -27 -3 -30 -7z"/>
</g>
</svg>
