<?xml version="1.0" standalone="no"?>
<!DOCTYPE svg PUBLIC "-//W3C//DTD SVG 20010904//EN"
 "http://www.w3.org/TR/2001/REC-SVG-20010904/DTD/svg10.dtd">
<svg version="1.0" xmlns="http://www.w3.org/2000/svg"
 width="278.000000pt" height="288.000000pt" viewBox="0 0 278.000000 288.000000"
 preserveAspectRatio="xMidYMid meet">

<g transform="translate(0.000000,288.000000) scale(0.100000,-0.100000)"
fill="#000000" stroke="none">
<path d="M770 2730 c0 -33 5 -35 107 -44 70 -6 127 -27 159 -57 23 -22 36 -48
84 -179 18 -47 81 -209 140 -360 60 -151 177 -448 260 -660 83 -212 162 -410
175 -440 13 -30 43 -107 67 -170 24 -63 98 -251 163 -417 l120 -303 308 0 308
0 -3 32 c-3 31 -5 33 -56 40 -133 19 -221 108 -309 312 -29 67 -289 724 -550
1391 -30 77 -102 259 -159 405 -58 146 -124 313 -147 372 l-42 108 -312 0
-313 0 0 -30z"/>
<path d="M1043 2498 c-21 -26 -193 -309 -193 -317 0 -4 11 -18 25 -31 47 -44
22 -110 -40 -110 -23 0 -26 -3 -17 -12 7 -7 12 -23 12 -36 l0 -24 35 31 c28
25 45 31 79 31 35 0 47 5 59 23 8 13 44 71 80 128 l65 105 -44 108 c-24 60
-45 111 -47 113 -2 2 -9 -2 -14 -9z"/>
<path d="M1096 2150 c-31 -49 -56 -92 -56 -95 0 -3 9 -1 19 5 44 23 116 5 169
-43 23 -21 23 -21 -4 48 -14 39 -35 94 -46 123 -11 28 -21 52 -23 52 -2 0 -29
-40 -59 -90z"/>
<path d="M690 2155 c-18 -19 -26 -22 -37 -14 -13 11 -25 6 -62 -29 -20 -19 -5
-27 23 -12 14 7 32 10 42 6 11 -4 25 1 39 14 l23 21 20 -21 c16 -18 24 -20 40
-11 15 8 23 7 32 -4 14 -17 40 -20 40 -6 0 19 -53 51 -72 45 -13 -4 -28 2 -42
15 l-22 21 -24 -25z"/>
<path d="M442 2029 c-74 -86 -93 -179 -52 -259 25 -49 25 -47 -7 -43 -57 9
-134 -75 -79 -85 14 -3 17 0 13 12 -7 18 28 46 58 46 12 0 36 -16 55 -35 23
-23 47 -38 72 -41 34 -6 38 -10 62 -70 30 -73 33 -104 11 -104 -8 0 -15 -4
-15 -10 0 -15 36 -12 50 5 9 10 11 40 8 95 l-5 80 34 0 c18 0 50 7 69 15 38
16 54 13 54 -11 0 -7 16 -32 36 -54 36 -40 36 -41 18 -61 -10 -12 -35 -29 -54
-39 -28 -15 -32 -20 -18 -25 23 -9 72 19 102 57 18 25 23 41 19 63 -6 27 -5
29 10 16 25 -20 63 -6 90 34 24 35 24 35 42 15 12 -14 16 -28 12 -50 -8 -38
18 -42 27 -4 8 29 -17 79 -47 98 -15 9 -21 6 -37 -14 -10 -14 -21 -23 -23 -20
-3 3 -7 35 -9 72 -4 67 -4 67 24 73 37 9 78 59 78 97 0 73 -70 120 -129 87
-29 -16 -40 -61 -20 -85 17 -20 56 -17 69 5 13 26 13 31 -5 31 -8 0 -15 -4
-15 -10 0 -12 -27 -13 -34 -1 -13 21 7 41 39 41 42 0 65 -22 65 -64 0 -66 -57
-90 -154 -64 -38 10 -57 9 -118 -5 -96 -23 -100 -22 -140 16 -19 17 -47 40
-61 50 -15 10 -27 25 -27 33 0 13 8 14 39 9 37 -6 41 -4 56 25 16 30 15 32
-11 63 -22 26 -90 59 -114 56 -3 0 -20 -18 -38 -40z m122 -26 c13 -15 22 -33
19 -39 -6 -17 -74 -6 -90 14 -20 25 -26 7 -15 -45 7 -33 19 -54 38 -68 14 -11
43 -37 64 -57 42 -43 66 -47 144 -23 148 45 231 -15 155 -111 -17 -21 -33 -51
-36 -66 -5 -23 -8 -26 -20 -16 -31 26 -36 49 -17 89 9 22 14 42 11 45 -3 4
-23 -7 -44 -23 -54 -43 -77 -53 -117 -53 -39 0 -58 22 -53 61 1 12 -3 24 -9
26 -15 5 -24 -42 -18 -97 l4 -45 -26 58 c-29 61 -50 76 -40 27 4 -21 2 -30 -7
-30 -23 0 -57 31 -57 51 0 11 -11 39 -24 62 -13 23 -27 56 -30 72 -9 44 18
123 55 161 42 43 80 45 113 7z"/>
<path d="M700 2015 c0 -8 7 -15 15 -15 8 0 15 7 15 15 0 8 -7 15 -15 15 -8 0
-15 -7 -15 -15z"/>
<path d="M655 1991 c-3 -5 -1 -12 5 -16 12 -7 30 2 30 16 0 12 -27 12 -35 0z"/>
<path d="M745 1991 c-3 -5 -1 -12 5 -16 12 -7 30 2 30 16 0 12 -27 12 -35 0z"/>
<path d="M705 1970 c-8 -13 4 -32 16 -25 12 8 12 35 0 35 -6 0 -13 -4 -16 -10z"/>
<path d="M657 1944 c-9 -10 2 -24 19 -24 8 0 14 7 14 15 0 15 -21 21 -33 9z"/>
<path d="M747 1944 c-9 -10 2 -24 19 -24 8 0 14 7 14 15 0 15 -21 21 -33 9z"/>
<path d="M705 1920 c-8 -13 4 -32 16 -25 12 8 12 35 0 35 -6 0 -13 -4 -16 -10z"/>
<path d="M443 1538 c-14 -24 -64 -103 -109 -175 l-83 -133 110 0 c61 0 119 5
130 10 24 13 91 118 84 131 -4 5 -12 9 -19 9 -35 0 -61 71 -35 97 15 15 -7 80
-32 93 -16 9 -23 4 -46 -32z"/>
<path d="M180 1180 c0 -20 7 -20 545 -20 538 0 545 0 545 20 0 20 -7 20 -545
20 -538 0 -545 0 -545 -20z"/>
<path d="M1310 1180 c6 -11 21 -20 34 -20 19 0 23 4 19 20 -4 14 -14 20 -35
20 -26 0 -28 -2 -18 -20z"/>
<path d="M1400 1181 c14 -27 63 -30 58 -3 -2 11 -14 18 -36 20 -31 3 -33 2
-22 -17z"/>
<path d="M1494 1184 c3 -9 6 -18 6 -20 0 -2 12 -4 26 -4 20 0 25 4 20 16 -3 9
-6 18 -6 20 0 2 -12 4 -26 4 -20 0 -25 -4 -20 -16z"/>
<path d="M190 1058 c74 -216 120 -332 142 -355 12 -14 41 -34 63 -44 37 -17
76 -19 566 -19 l527 0 -100 250 -100 250 -563 0 -564 0 29 -82z m610 -29 c0
-6 9 -8 21 -4 11 4 47 4 80 0 47 -6 57 -10 49 -20 -13 -16 -50 -26 -50 -14 0
5 -4 9 -9 9 -5 0 -7 -8 -4 -18 2 -10 -5 -26 -17 -37 -22 -20 -22 -20 -41 4
-20 25 -17 41 7 41 11 0 13 -6 9 -21 -5 -15 -3 -20 6 -17 19 6 21 21 6 42 -11
15 -17 17 -35 7 -24 -13 -29 -50 -10 -69 22 -22 56 -12 165 48 122 68 160 75
191 35 19 -24 20 -24 37 -5 12 13 30 20 54 19 37 -1 35 -3 -10 -13 -32 -7 -53
-49 -39 -77 6 -10 17 -19 25 -19 20 0 30 21 15 30 -11 7 -10 12 3 24 14 14 20
15 37 4 24 -15 26 -28 5 -28 -19 0 -19 -11 -1 -35 7 -11 20 -16 29 -12 19 7
43 -51 27 -67 -7 -7 -10 -1 -10 18 0 24 -3 27 -27 24 -21 -2 -29 -9 -31 -27
-3 -18 0 -22 12 -18 23 9 19 -5 -7 -24 -20 -15 -23 -14 -41 3 -17 16 -18 18
-3 18 21 0 22 29 2 36 -38 15 -62 -58 -29 -90 22 -22 42 -20 103 10 66 33 78
25 17 -11 -57 -33 -109 -37 -137 -8 l-21 20 -25 -25 c-35 -35 -76 -25 -192 48
-105 66 -137 72 -158 31 -16 -33 0 -63 30 -59 23 3 39 48 17 48 -6 0 -9 -4 -6
-9 3 -5 -1 -14 -8 -20 -20 -17 -30 3 -16 29 16 31 54 23 58 -11 2 -20 8 -26
21 -22 9 2 28 -5 42 -16 l24 -20 -55 -2 c-30 -1 -89 -2 -130 -3 -41 -2 -95 3
-120 9 -39 10 -43 13 -25 21 11 6 27 10 35 10 8 -1 17 10 20 24 7 35 55 41 63
8 4 -12 2 -27 -2 -31 -13 -13 -33 2 -27 19 5 14 -5 19 -17 8 -11 -12 13 -44
33 -44 11 0 24 9 30 21 15 26 -11 69 -41 69 -11 0 -70 -28 -130 -62 -122 -68
-161 -76 -191 -39 -32 41 -21 93 27 119 17 10 18 11 3 12 -26 0 -50 43 -43 73
20 76 96 76 227 -2 47 -28 98 -51 112 -51 46 0 62 71 20 87 -17 6 -47 -23 -41
-40 4 -13 22 -4 19 11 -3 14 24 17 32 3 3 -5 -2 -19 -12 -31 -16 -20 -21 -21
-41 -10 -17 9 -22 18 -18 37 3 17 1 21 -6 14 -7 -7 -20 -5 -41 6 l-31 17 45 8
c25 5 62 7 83 6 20 -2 37 0 37 4 0 5 5 8 10 8 6 0 10 -5 10 -11z"/>
<path d="M431 1001 c-34 -34 -25 -81 15 -81 17 0 24 6 24 20 0 11 -5 20 -12
20 -6 0 -3 6 7 14 15 10 23 11 37 2 10 -6 18 -14 18 -19 0 -4 -5 -5 -10 -2
-17 11 -24 -26 -7 -42 19 -20 45 -11 56 19 l8 23 7 -22 c4 -12 16 -23 27 -25
30 -5 27 -22 -6 -28 -16 -3 -28 -8 -27 -12 4 -18 1 -28 -8 -28 -5 0 -10 9 -10
21 0 30 -54 23 -58 -8 -2 -14 2 -23 9 -23 10 0 9 -4 -2 -15 -9 -9 -23 -13 -32
-9 -18 7 -23 24 -7 24 6 0 10 9 10 20 0 14 -7 20 -24 20 -38 0 -51 -64 -19
-95 26 -27 69 -13 181 55 l102 62 -53 32 c-28 18 -70 44 -93 59 -58 39 -106
45 -133 18z"/>
<path d="M1054 1001 c-22 -10 -60 -31 -85 -47 -24 -15 -58 -35 -76 -43 l-31
-16 112 -67 c62 -38 122 -68 134 -68 26 0 55 40 50 71 -4 30 -35 49 -48 29
-14 -22 -12 -28 8 -32 15 -3 14 -6 -5 -16 -18 -10 -28 -10 -45 0 -21 11 -21
13 -5 16 30 6 18 46 -15 50 -22 3 -27 -1 -31 -25 -4 -26 -5 -27 -12 -6 -4 13
-19 24 -37 28 -35 8 -32 29 4 33 16 2 28 11 32 25 l7 22 9 -21 c11 -27 24 -36
43 -28 20 7 29 44 11 44 -20 0 -17 13 6 28 18 11 23 10 38 -4 12 -13 13 -19 4
-22 -22 -7 -14 -34 9 -30 49 7 38 90 -11 96 -14 1 -43 -6 -66 -17z"/>
<path d="M768 911 c-15 -18 -15 -21 1 -35 16 -15 19 -15 34 2 16 18 16 20 -1
35 -17 15 -19 15 -34 -2z"/>
<path d="M1162 910 c-21 -18 -21 -18 -1 -36 19 -17 20 -17 39 2 19 19 19 20 2
35 -17 15 -21 14 -40 -1z"/>
<path d="M1334 1123 c3 -10 48 -123 98 -250 88 -225 92 -233 119 -233 l27 0
-99 248 c-92 231 -100 247 -125 250 -22 3 -26 1 -20 -15z"/>
<path d="M1420 1134 c0 -3 44 -115 97 -250 95 -241 97 -244 126 -244 24 0 28
3 23 18 -4 9 -48 122 -99 249 -89 224 -93 233 -119 233 -16 0 -28 -3 -28 -6z"/>
<path d="M1562 1013 c28 -70 72 -182 98 -248 43 -109 50 -120 75 -123 24 -3
26 -1 20 20 -4 13 -13 34 -20 48 -7 14 -33 77 -58 140 -105 266 -114 285 -141
288 -24 3 -24 3 26 -125z"/>
<path d="M430 562 c0 -24 159 -385 180 -407 53 -57 33 -55 724 -55 350 0 636
4 636 8 0 5 -35 98 -79 208 -43 109 -82 209 -85 222 l-7 22 -669 0 c-368 0
-675 3 -684 6 -9 3 -16 2 -16 -4z m651 -202 c68 -160 66 -150 27 -150 -28 0
-35 5 -45 30 -11 28 -14 30 -65 30 -50 0 -54 -2 -65 -30 -9 -24 -17 -30 -42
-30 -17 0 -31 2 -31 6 0 3 19 49 41 102 23 53 48 112 56 130 12 29 18 33 45
30 29 -3 33 -9 79 -118z m226 105 c35 -24 48 -77 28 -118 -19 -40 -50 -57
-105 -57 -40 0 -40 0 -40 -40 0 -22 -4 -40 -9 -40 -21 0 -51 113 -51 191 l0
79 78 0 c53 0 84 -5 99 -15z m283 -10 c0 -24 -2 -25 -75 -25 l-75 0 0 -35 0
-35 65 0 c63 0 65 -1 65 -25 0 -24 -2 -25 -65 -25 l-65 0 0 -50 c0 -49 -1 -50
-30 -50 l-30 0 0 135 0 135 105 0 105 0 0 -25z"/>
<path d="M981 359 c-6 -18 -11 -34 -11 -35 0 -2 14 -4 31 -4 26 0 30 3 24 18
-4 9 -10 25 -12 35 -8 26 -20 21 -32 -14z"/>
<path d="M1190 385 c0 -42 2 -45 26 -45 39 0 64 18 64 45 0 27 -25 45 -64 45
-24 0 -26 -3 -26 -45z"/>
</g>
</svg>
